<svg xmlns="http://www.w3.org/2000/svg" xmlns:xlink="http://www.w3.org/1999/xlink" xmlns:lucid="lucid" width="1832.15" height="983"><g transform="translate(-299.5 -339.5)" lucid:page-tab-id="0_0"><path d="M0 0h2500v1500H0z" fill="#fff"/><path d="M800 750c0 49.7-40.3 90-90 90s-90-40.3-90-90 40.3-90 90-90 90 40.3 90 90z" stroke="#3a414a" fill="#fff"/><use xlink:href="#a" transform="matrix(1,0,0,1,640,660) translate(13.518518518518519 67.77777777777777)"/><use xlink:href="#b" transform="matrix(1,0,0,1,640,660) translate(20.43209876543211 94.44444444444446)"/><use xlink:href="#c" transform="matrix(1,0,0,1,640,660) translate(95 94.44444444444446)"/><use xlink:href="#d" transform="matrix(1,0,0,1,640,660) translate(22.1604938271605 121.11111111111111)"/><path d="M1440 750c0 49.7-40.3 90-90 90s-90-40.3-90-90 40.3-90 90-90 90 40.3 90 90z" stroke="#3a414a" fill="#fff"/><use xlink:href="#e" transform="matrix(1,0,0,1,1280,660) translate(7.129629629629626 81.11111111111111)"/><use xlink:href="#f" transform="matrix(1,0,0,1,1280,660) translate(2.345679012345684 107.77777777777777)"/><use xlink:href="#g" transform="matrix(1,0,0,1,1280,660) translate(39.320987654320994 107.77777777777777)"/><path d="M1920 750c0 49.7-40.3 90-90 90s-90-40.3-90-90 40.3-90 90-90 90 40.3 90 90z" stroke="#3a414a" fill="#fff"/><use xlink:href="#h" transform="matrix(1,0,0,1,1760,660) translate(13.364197530864203 67.77777777777777)"/><use xlink:href="#i" transform="matrix(1,0,0,1,1760,660) translate(2.1604938271604937 94.44444444444446)"/><use xlink:href="#g" transform="matrix(1,0,0,1,1760,660) translate(20.833333333333336 121.11111111111111)"/><path d="M320 1146a6 6 0 0 1 6-6h168a6 6 0 0 1 6 6v128a6 6 0 0 1-6 6H326a6 6 0 0 1-6-6z" stroke="#3a414a" fill="#fff"/><use xlink:href="#j" transform="matrix(1,0,0,1,340,1140) translate(38.27160493827161 61.111111111111114)"/><use xlink:href="#d" transform="matrix(1,0,0,1,340,1140) translate(22.1604938271605 87.77777777777777)"/><path d="M870 1146a6 6 0 0 1 6-6h168a6 6 0 0 1 6 6v128a6 6 0 0 1-6 6H876a6 6 0 0 1-6-6z" stroke="#3a414a" fill="#fff"/><use xlink:href="#k" transform="matrix(1,0,0,1,890,1140) translate(-2.5 61.111111111111114)"/><use xlink:href="#l" transform="matrix(1,0,0,1,890,1140) translate(27.74691358024691 87.77777777777777)"/><path d="M1260 1106a6 6 0 0 1 6-6h168a6 6 0 0 1 6 6v128a6 6 0 0 1-6 6h-168a6 6 0 0 1-6-6z" stroke="#3a414a" fill="#fff"/><use xlink:href="#m" transform="matrix(1,0,0,1,1280,1100) translate(11.557291666666657 27.291666666666668)"/><use xlink:href="#n" transform="matrix(1,0,0,1,1280,1100) translate(2.7239583333333144 52.29166666666667)"/><use xlink:href="#o" transform="matrix(1,0,0,1,1280,1100) translate(91.50520833333333 52.29166666666667)"/><use xlink:href="#p" transform="matrix(1,0,0,1,1280,1100) translate(55.09375 77.29166666666667)"/><use xlink:href="#q" transform="matrix(1,0,0,1,1280,1100) translate(17.484375 102.29166666666667)"/><use xlink:href="#r" transform="matrix(1,0,0,1,1280,1100) translate(18.244791666666664 127.29166666666667)"/><path d="M410.5 1139h-1v-138.33h1zm300-154.98l-.08 1-.24 1-.4.93-.52.87-.66.78-.78.66-.87.53-.94.38-.98.24-1 .08h-89.77v-1h89.73l.88-.07.84-.2.8-.33.73-.45.66-.56.55-.67.45-.73.33-.8.2-.84.07-.88v-127.1h1z" stroke="#3a414a" stroke-width=".05" fill="#3a414a"/><path d="M410.5 1139.5h-1v-.5h1z" fill="#3a414a"/><path d="M410.52 1139.53h-1.04v-.57h1.04zm-1-.52v.47h.96v-.46z" stroke="#3a414a" stroke-width=".05" fill="#3a414a"/><path d="M714.63 856.38h-9.26l4.63-14.26z" fill="#3a414a"/><path d="M715.32 856.88h-10.64L710 840.5zm-9.27-1h7.9L710 843.74z" stroke="#3a414a" stroke-width=".05" fill="#3a414a"/><use xlink:href="#s" transform="matrix(1,0,0,1,391.2418094633261,979.3333655690025) translate(0 14.222222222222223)"/><use xlink:href="#t" transform="matrix(1,0,0,1,391.2418094633261,979.3333655690025) translate(99.55555555555557 14.222222222222223)"/><use xlink:href="#u" transform="matrix(1,0,0,1,391.2418094633261,979.3333655690025) translate(163.95061728395063 14.222222222222223)"/><path d="M620 366a6 6 0 0 1 6-6h188a6 6 0 0 1 6 6v88a6 6 0 0 1-6 6H626a6 6 0 0 1-6-6z" fill="#fff"/><path d="M620 360h200m0 100H620" stroke="#3a414a" fill="#fff"/><use xlink:href="#v" transform="matrix(1,0,0,1,640,360) translate(21.790123456790127 27.77777777777778)"/><use xlink:href="#w" transform="matrix(1,0,0,1,640,360) translate(77.1604938271605 27.77777777777778)"/><use xlink:href="#x" transform="matrix(1,0,0,1,640,360) translate(27.777777777777786 54.44444444444445)"/><use xlink:href="#c" transform="matrix(1,0,0,1,640,360) translate(107.65432098765432 54.44444444444445)"/><use xlink:href="#y" transform="matrix(1,0,0,1,640,360) translate(32.43827160493827 81.11111111111111)"/><path d="M1200 386a6 6 0 0 1 6-6h188a6 6 0 0 1 6 6v88a6 6 0 0 1-6 6h-188a6 6 0 0 1-6-6z" fill="#fff"/><path d="M1200 380h200m0 100h-200" stroke="#3a414a" fill="#fff"/><use xlink:href="#v" transform="matrix(1,0,0,1,1220,380) translate(21.790123456790127 27.77777777777778)"/><use xlink:href="#w" transform="matrix(1,0,0,1,1220,380) translate(77.1604938271605 27.77777777777778)"/><use xlink:href="#z" transform="matrix(1,0,0,1,1220,380) translate(21.975308641975303 54.44444444444445)"/><use xlink:href="#A" transform="matrix(1,0,0,1,1220,380) translate(27.09876543209876 81.11111111111111)"/><path d="M1824.02 569.5l1 .08 1 .24.93.4.87.52.78.66.66.78.53.87.38.94.24.98.08 1V659h-1v-82.98l-.07-.88-.2-.84-.33-.8-.45-.73-.56-.66-.67-.55-.73-.45-.8-.33-.84-.2-.88-.07h-149.26v-1zm-533.45-4.64l.2.84.33.8.45.73.56.66.67.55.73.45.8.33.84.2.88.07h149.26v1h-149.3l-1-.08-1-.24-.93-.4-.87-.52-.78-.66-.66-.78-.53-.87-.38-.94-.24-.98-.08-1v-67.14h1v67.1z" stroke="#3a414a" stroke-width=".05" fill="#3a414a"/><path d="M1830.5 659.5h-1v-.5h1z" fill="#3a414a"/><path d="M1830.53 659.54h-1.05v-.58h1.06zm-1-.53v.48h.95v-.47z" stroke="#3a414a" stroke-width=".05" fill="#3a414a"/><path d="M1294.63 496.38h-9.27l4.64-14.26z" fill="#3a414a"/><path d="M1295.32 496.88h-10.64l5.32-16.38zm-9.27-1h7.9l-3.95-12.14z" stroke="#3a414a" stroke-width=".05" fill="#3a414a"/><use xlink:href="#B" transform="matrix(1,0,0,1,1445.2839506172838,559.3333260976642) translate(0 14.222222222222223)"/><use xlink:href="#C" transform="matrix(1,0,0,1,1445.2839506172838,559.3333260976642) translate(22.66666666666667 14.222222222222223)"/><use xlink:href="#D" transform="matrix(1,0,0,1,1445.2839506172838,559.3333260976642) translate(142.91358024691363 14.222222222222223)"/><path d="M2020.5 1314.52l-.08 1-.24 1-.4.93-.52.87-.66.78-.78.66-.87.53-.94.38-.98.24-1 .08H971.32l-1-.08-1-.24-.94-.4-.87-.52-.76-.66-.67-.78-.53-.87-.4-.94-.23-.98-.07-1v-17.64h1v17.6l.07.88.2.84.33.8.46.73.55.66.65.55.74.45.8.33.83.2.88.07h1042.63l.88-.07.84-.2.8-.33.73-.45.66-.56.55-.67.45-.73.33-.8.2-.84.07-.88V864h1zm-5.48-884.94l1 .24.93.4.87.52.78.66.66.78.53.87.38.94.24.98.08 1v406.7h-1V436l-.07-.88-.2-.84-.33-.8-.45-.73-.56-.66-.67-.55-.73-.45-.8-.33-.84-.2-.88-.07H1400.5v-1h613.52z" stroke="#3a414a" stroke-width=".05" fill="#3a414a"/><path d="M1400.5 430.5h-.5v-1h.5z" fill="#3a414a"/><path d="M1400.54 430.52h-.57v-1.04h.57zm-.5-1v.96h.45v-.96z" stroke="#3a414a" stroke-width=".05" fill="#3a414a"/><path d="M969.97 1296.38h-9.27l4.63-14.26z" fill="#3a414a"/><path d="M970.66 1296.88H960l5.33-16.38zm-9.27-1h7.88l-3.95-12.14z" stroke="#3a414a" stroke-width=".05" fill="#3a414a"/><use xlink:href="#E" transform="matrix(1,0,0,1,1910.3456790123457,842.6666666666669) translate(0 14.222222222222223)"/><use xlink:href="#F" transform="matrix(1,0,0,1,1910.3456790123457,842.6666666666669) translate(102.96296296296296 14.222222222222223)"/><path d="M710.5 659h-1v-65.67h1zm0-87h-1v-95.12h1z" stroke="#3a414a" stroke-width=".05" fill="#3a414a"/><path d="M710.5 659.5h-1v-.5h1z" fill="#3a414a"/><path d="M710.52 659.54h-1.04v-.58h1.04zm-1-.53v.48h.96v-.47z" stroke="#3a414a" stroke-width=".05" fill="#3a414a"/><path d="M714.63 476.38h-9.26l4.63-14.26z" fill="#3a414a"/><path d="M715.32 476.88h-10.64L710 460.5zm-9.27-1h7.9L710 463.74z" stroke="#3a414a" stroke-width=".05" fill="#3a414a"/><use xlink:href="#G" transform="matrix(1,0,0,1,536.9876543209876,572) translate(0 14.222222222222223)"/><use xlink:href="#H" transform="matrix(1,0,0,1,536.9876543209876,572) translate(112.0493827160494 14.222222222222223)"/><use xlink:href="#I" transform="matrix(1,0,0,1,536.9876543209876,572) translate(163.60493827160496 14.222222222222223)"/><use xlink:href="#J" transform="matrix(1,0,0,1,536.9876543209876,572) translate(203.5555555555556 14.222222222222223)"/><use xlink:href="#K" transform="matrix(1,0,0,1,536.9876543209876,572) translate(287.80246913580254 14.222222222222223)"/><path d="M1060 750c0 49.7-40.3 90-90 90s-90-40.3-90-90 40.3-90 90-90 90 40.3 90 90z" stroke="#3a414a" fill="#fff"/><use xlink:href="#L" transform="matrix(1,0,0,1,900,660) translate(15.123456790123463 67.77777777777777)"/><use xlink:href="#M" transform="matrix(1,0,0,1,900,660) translate(22.808641975308646 94.44444444444446)"/><use xlink:href="#g" transform="matrix(1,0,0,1,900,660) translate(20.833333333333336 121.11111111111111)"/><path d="M870 366a6 6 0 0 1 6-6h188a6 6 0 0 1 6 6v88a6 6 0 0 1-6 6H876a6 6 0 0 1-6-6z" fill="#fff"/><path d="M870 360h200m0 100H870" stroke="#3a414a" fill="#fff"/><use xlink:href="#v" transform="matrix(1,0,0,1,890,360) translate(21.790123456790127 41.111111111111114)"/><use xlink:href="#w" transform="matrix(1,0,0,1,890,360) translate(77.1604938271605 41.111111111111114)"/><use xlink:href="#N" transform="matrix(1,0,0,1,890,360) translate(32.160493827160494 67.77777777777777)"/><path d="M970.5 643.12h-1v-72.45h1zm0-93.8h-1V461h1z" stroke="#3a414a" stroke-width=".05" fill="#3a414a"/><path d="M970.5 461h-1v-.5h1z" fill="#3a414a"/><path d="M970.52 461.04h-1.04v-.56h1.04zm-1-.52v.47h.96v-.48z" stroke="#3a414a" stroke-width=".05" fill="#3a414a"/><path d="M970 657.88l-4.63-14.26h9.26z" fill="#3a414a"/><path d="M970 659.5l-5.32-16.38h10.64zm-3.95-15.38l3.95 12.14 3.95-12.14z" stroke="#3a414a" stroke-width=".05" fill="#3a414a"/><g><use xlink:href="#O" transform="matrix(1,0,0,1,929.5802469135803,549.3333260976642) translate(0 14.222222222222223)"/></g><path d="M801 750h62.62" stroke="#3a414a" fill="none"/><path d="M801 750.5h-.5v-1h.5z" stroke="#3a414a" stroke-width=".05" fill="#3a414a"/><path d="M878.38 750l-14.26 4.63v-9.26z" stroke="#3a414a" fill="#3a414a"/><path d="M1350.5 1099h-1V929.33h1zm0-191h-1v-51.12h1z" stroke="#3a414a" stroke-width=".05" fill="#3a414a"/><path d="M1350.5 1099.5h-1v-.5h1z" fill="#3a414a"/><path d="M1350.53 1099.53h-1.06v-.57h1.06zm-1-.52v.47h.94v-.46z" stroke="#3a414a" stroke-width=".05" fill="#3a414a"/><path d="M1354.63 856.38h-9.27l4.64-14.26z" fill="#3a414a"/><path d="M1355.32 856.88h-10.64l5.32-16.38zm-9.27-1h7.9l-3.95-12.14z" stroke="#3a414a" stroke-width=".05" fill="#3a414a"/><g><use xlink:href="#P" transform="matrix(1,0,0,1,1270.4197530864199,908) translate(0 14.222222222222223)"/><use xlink:href="#Q" transform="matrix(1,0,0,1,1270.4197530864199,908) translate(86.9135802469136 14.222222222222223)"/></g><path d="M1441 750h282.12" stroke="#3a414a" fill="none"/><path d="M1441 750.5h-.5v-1h.5z" stroke="#3a414a" stroke-width=".05" fill="#3a414a"/><path d="M1737.88 750l-14.26 4.63v-9.26z" stroke="#3a414a" fill="#3a414a"/><path d="M960.5 1139h-1v-97.67h1zm0-119h-1V856.34h1z" stroke="#3a414a" stroke-width=".05" fill="#3a414a"/><path d="M960.5 1139.5h-1v-.5h1z" fill="#3a414a"/><path d="M960.52 1139.53h-1.04v-.57h1.04zm-1-.52v.47h.96v-.46z" stroke="#3a414a" stroke-width=".05" fill="#3a414a"/><path d="M964.63 855.84h-9.26l4.63-14.27z" fill="#3a414a"/><path d="M965.32 856.34h-10.64l5.32-16.4zm-9.27-1h7.9L960 843.2z" stroke="#3a414a" stroke-width=".05" fill="#3a414a"/><g><use xlink:href="#R" transform="matrix(1,0,0,1,716.3703703703703,1020.0000000000001) translate(0 14.222222222222223)"/><use xlink:href="#S" transform="matrix(1,0,0,1,716.3703703703703,1020.0000000000001) translate(134.9135802469136 14.222222222222223)"/><use xlink:href="#T" transform="matrix(1,0,0,1,716.3703703703703,1020.0000000000001) translate(240.9382716049383 14.222222222222223)"/><use xlink:href="#U" transform="matrix(1,0,0,1,716.3703703703703,1020.0000000000001) translate(289.43209876543216 14.222222222222223)"/><use xlink:href="#V" transform="matrix(1,0,0,1,716.3703703703703,1020.0000000000001) translate(423.85185185185196 14.222222222222223)"/></g><path d="M575.35 1210.5h-58.47v-1h58.47zm293.65 0h-74.35v-1H869z" stroke="#3a414a" stroke-width=".05" fill="#3a414a"/><path d="M869.5 1210.5h-.5v-1h.5z" fill="#3a414a"/><path d="M869.52 1210.53h-.56v-1.06h.56zm-.5-1v.94h.46v-.94z" stroke="#3a414a" stroke-width=".05" fill="#3a414a"/><path d="M516.38 1214.63l-14.26-4.63 14.26-4.63z" fill="#3a414a"/><path d="M516.88 1215.32L500.5 1210l16.38-5.32zm-13.14-5.32l12.14 3.95v-7.9z" stroke="#3a414a" stroke-width=".05" fill="#3a414a"/><g><use xlink:href="#E" transform="matrix(1,0,0,1,575.3456790123457,1199.3333333333333) translate(0 14.222222222222223)"/><use xlink:href="#F" transform="matrix(1,0,0,1,575.3456790123457,1199.3333333333333) translate(102.96296296296296 14.222222222222223)"/></g><path d="M1061 750h182.12" stroke="#3a414a" fill="none"/><path d="M1061 750.5h-.5v-1h.5z" stroke="#3a414a" stroke-width=".05" fill="#3a414a"/><path d="M1257.88 750l-14.26 4.63v-9.26z" stroke="#3a414a" fill="#3a414a"/><defs><path fill="#3a414a" d="M30-248c87 1 191-15 191 75 0 78-77 80-158 76V0H30v-248zm33 125c57 0 124 11 124-50 0-59-68-47-124-48v98" id="W"/><path fill="#3a414a" d="M100-194c63 0 86 42 84 106H49c0 40 14 67 53 68 26 1 43-12 49-29l28 8c-11 28-37 45-77 45C44 4 14-33 15-96c1-61 26-98 85-98zm52 81c6-60-76-77-97-28-3 7-6 17-6 28h103" id="X"/><path fill="#3a414a" d="M174-55c-7 37-32 59-75 59-59 0-80-40-84-99-6-83 73-124 135-83 12 8 19 23 23 40l-33 2c0-37-59-44-79-19-8 11-12 27-12 47h72v23H48c2 36 13 65 50 65 25 0 41-13 44-37" id="Y"/><path fill="#3a414a" d="M96-169c-40 0-48 33-48 73s9 75 48 75c24 0 41-14 43-38l32 2c-6 37-31 61-74 61-59 0-76-41-82-99-10-93 101-131 147-64 4 7 5 14 7 22l-32 3c-4-21-16-35-41-35" id="Z"/><path fill="#3a414a" d="M6-190h153v23H98V0H67v-167H6v-23" id="aa"/><path fill="#3a414a" d="M115-194c55 1 70 41 70 98S169 2 115 4C84 4 66-9 55-30l1 105H24l-1-265h31l2 30c10-21 28-34 59-34zm-8 174c40 0 45-34 45-75s-6-73-45-74c-42 0-51 32-51 76 0 43 10 73 51 73" id="ab"/><path fill="#3a414a" d="M141-36C126-15 110 5 73 4 37 3 15-17 15-53c-1-64 63-63 125-63 3-35-9-54-41-54-24 1-41 7-42 31l-33-3c5-37 33-52 76-52 45 0 72 20 72 64v82c-1 20 7 32 28 27v20c-31 9-61-2-59-35zM48-53c0 20 12 33 32 33 41-3 63-29 60-74-43 2-92-5-92 41" id="ac"/><path fill="#3a414a" d="M57-190v167h83v-167h32v167h26v95h-29V0H25v-190h32" id="ad"/><path fill="#3a414a" d="M24-231v-30h32v30H24zM24 0v-190h32V0H24" id="ae"/><path fill="#3a414a" d="M20-138c-1-64 85-51 150-52V0h-32v-81H94L39 0H3l60-83c-28-5-43-24-43-55zm33 3c0 40 46 33 85 33v-66c-39 0-85-6-85 33" id="af"/><g id="a"><use transform="matrix(0.06172839506172839,0,0,0.06172839506172839,0,0)" xlink:href="#W"/><use transform="matrix(0.06172839506172839,0,0,0.06172839506172839,13.827160493827158,0)" xlink:href="#X"/><use transform="matrix(0.06172839506172839,0,0,0.06172839506172839,26.172839506172835,0)" xlink:href="#Y"/><use transform="matrix(0.06172839506172839,0,0,0.06172839506172839,37.46913580246913,0)" xlink:href="#Z"/><use transform="matrix(0.06172839506172839,0,0,0.06172839506172839,48.58024691358024,0)" xlink:href="#aa"/><use transform="matrix(0.06172839506172839,0,0,0.06172839506172839,58.703703703703695,0)" xlink:href="#ab"/><use transform="matrix(0.06172839506172839,0,0,0.06172839506172839,71.04938271604938,0)" xlink:href="#ac"/><use transform="matrix(0.06172839506172839,0,0,0.06172839506172839,83.39506172839506,0)" xlink:href="#ad"/><use transform="matrix(0.06172839506172839,0,0,0.06172839506172839,96.11111111111111,0)" xlink:href="#ae"/><use transform="matrix(0.06172839506172839,0,0,0.06172839506172839,100.98765432098766,0)" xlink:href="#af"/></g><path fill="#3a414a" d="M152-53C154 19 21 22 9-41l28-8c5 36 84 42 81-4-1-29-28-34-58-35v-24c28 0 55-4 55-30 0-19-14-29-34-28-20 0-35 7-38 25l-28-3c4-33 30-46 66-46 37 0 66 15 66 50 0 27-20 41-44 44 27 5 48 17 49 47" id="ag"/><path fill="#3a414a" d="M170-190V0h-32v-167H57V0H25v-190h145" id="ah"/><path fill="#3a414a" d="M56-190L54-37l88-153h34V0h-30l2-153L59 0H25v-190h31" id="ai"/><path fill="#3a414a" d="M179-190L93 31C79 59 56 82 12 73V49c39 6 53-20 64-50L1-190h34L92-34l54-156h33" id="aj"/><g id="b"><use transform="matrix(0.06172839506172839,0,0,0.06172839506172839,0,0)" xlink:href="#ag"/><use transform="matrix(0.06172839506172839,0,0,0.06172839506172839,10.185185185185185,0)" xlink:href="#ac"/><use transform="matrix(0.06172839506172839,0,0,0.06172839506172839,22.530864197530864,0)" xlink:href="#ah"/><use transform="matrix(0.06172839506172839,0,0,0.06172839506172839,34.50617283950617,0)" xlink:href="#ai"/><use transform="matrix(0.06172839506172839,0,0,0.06172839506172839,46.913580246913575,0)" xlink:href="#aa"/><use transform="matrix(0.06172839506172839,0,0,0.06172839506172839,57.28395061728394,0)" xlink:href="#aj"/></g><path fill="#3a414a" d="M57-190v80h85v-80h32V0h-32v-87H57V0H25v-190h32" id="ak"/><g id="c"><use transform="matrix(0.06172839506172839,0,0,0.06172839506172839,0,0)" xlink:href="#ak"/><use transform="matrix(0.06172839506172839,0,0,0.06172839506172839,12.222222222222221,0)" xlink:href="#ac"/></g><path fill="#3a414a" d="M176-55C176 11 93 0 25 0v-190c61 3 142-15 144 47 1 29-21 35-39 44 27 3 46 16 46 44zm-34 0c0-41-47-30-85-32v64c38-1 85 8 85-32zm-6-83c0-36-44-26-79-28v56c34-2 79 8 79-28" id="al"/><path fill="#3a414a" d="M131-81C94-61 21-56 21-118v-72h32c4 39-16 99 29 99 19 0 33-5 49-8v-91h31V0h-31v-81" id="am"/><g id="d"><use transform="matrix(0.06172839506172839,0,0,0.06172839506172839,0,0)" xlink:href="#ak"/><use transform="matrix(0.06172839506172839,0,0,0.06172839506172839,12.222222222222221,0)" xlink:href="#ac"/><use transform="matrix(0.06172839506172839,0,0,0.06172839506172839,24.5679012345679,0)" xlink:href="#al"/><use transform="matrix(0.06172839506172839,0,0,0.06172839506172839,35.37037037037037,0)" xlink:href="#am"/><use transform="matrix(0.06172839506172839,0,0,0.06172839506172839,46.913580246913575,0)" xlink:href="#ac"/><use transform="matrix(0.06172839506172839,0,0,0.06172839506172839,59.25925925925925,0)" xlink:href="#ak"/><use transform="matrix(0.06172839506172839,0,0,0.06172839506172839,71.48148148148147,0)" xlink:href="#ak"/><use transform="matrix(0.06172839506172839,0,0,0.06172839506172839,83.7037037037037,0)" xlink:href="#af"/></g><path fill="#3a414a" d="M197 0v-219H63V0H30v-248h201V0h-34" id="an"/><path fill="#3a414a" d="M100-194c62-1 85 37 85 99 1 63-27 99-86 99S16-35 15-95c0-66 28-99 85-99zM99-20c44 1 53-31 53-75 0-43-8-75-51-75s-53 32-53 75 10 74 51 75" id="ao"/><path fill="#3a414a" d="M147-167H93C83-118 77-63 59-23h88v-144zM24-23c26-44 31-102 41-167h113v167h26v95h-29V0H32v72H4v-95h20" id="ap"/><g id="e"><use transform="matrix(0.06172839506172839,0,0,0.06172839506172839,0,0)" xlink:href="#an"/><use transform="matrix(0.06172839506172839,0,0,0.06172839506172839,15.925925925925926,0)" xlink:href="#ab"/><use transform="matrix(0.06172839506172839,0,0,0.06172839506172839,28.271604938271604,0)" xlink:href="#ao"/><use transform="matrix(0.06172839506172839,0,0,0.06172839506172839,40.617283950617285,0)" xlink:href="#al"/><use transform="matrix(0.06172839506172839,0,0,0.06172839506172839,52.160493827160494,0)" xlink:href="#X"/><use transform="matrix(0.06172839506172839,0,0,0.06172839506172839,64.01234567901234,0)" xlink:href="#ap"/><use transform="matrix(0.06172839506172839,0,0,0.06172839506172839,76.9753086419753,0)" xlink:href="#X"/><use transform="matrix(0.06172839506172839,0,0,0.06172839506172839,89.32098765432099,0)" xlink:href="#ak"/><use transform="matrix(0.06172839506172839,0,0,0.06172839506172839,101.54320987654322,0)" xlink:href="#ak"/><use transform="matrix(0.06172839506172839,0,0,0.06172839506172839,113.76543209876544,0)" xlink:href="#af"/></g><path fill="#3a414a" d="M137 0h-34L2-248h35l83 218 83-218h36" id="aq"/><path fill="#3a414a" d="M233-177c-1 41-23 64-60 70L243 0h-38l-65-103H63V0H30v-248c88 3 205-21 203 71zM63-129c60-2 137 13 137-47 0-61-80-42-137-45v92" id="ar"/><g id="f"><use transform="matrix(0.06172839506172839,0,0,0.06172839506172839,0,0)" xlink:href="#aq"/><use transform="matrix(0.06172839506172839,0,0,0.06172839506172839,14.814814814814813,0)" xlink:href="#ar"/></g><path fill="#3a414a" d="M138 0h-27L54-167c3 53 2 111 2 167H25v-190h49c16 56 39 106 51 166 11-61 34-110 50-166h48V0h-31l2-168" id="as"/><path fill="#3a414a" d="M153 0v-167H87C74-108 81-27 38 0 29 5 12 6 2 1v-22c51 4 39-64 49-112 5-25 4-25 8-57h126V0h-32" id="at"/><path fill="#3a414a" d="M34 0v-190h32V0H34zm34-214v-33h29v33H68zm-69 0v-33h29v33H-1" id="au"/><g id="g"><use transform="matrix(0.06172839506172839,0,0,0.06172839506172839,0,0)" xlink:href="#Z"/><use transform="matrix(0.06172839506172839,0,0,0.06172839506172839,11.11111111111111,0)" xlink:href="#ai"/><use transform="matrix(0.06172839506172839,0,0,0.06172839506172839,23.51851851851852,0)" xlink:href="#as"/><use transform="matrix(0.06172839506172839,0,0,0.06172839506172839,39.01234567901235,0)" xlink:href="#aj"/><use transform="matrix(0.06172839506172839,0,0,0.06172839506172839,49.62962962962963,0)" xlink:href="#at"/><use transform="matrix(0.06172839506172839,0,0,0.06172839506172839,62.592592592592595,0)" xlink:href="#af"/><use transform="matrix(0.06172839506172839,0,0,0.06172839506172839,74.5679012345679,0)" xlink:href="#ad"/><use transform="matrix(0.06172839506172839,0,0,0.06172839506172839,87.28395061728395,0)" xlink:href="#ae"/><use transform="matrix(0.06172839506172839,0,0,0.06172839506172839,92.1604938271605,0)" xlink:href="#au"/></g><path fill="#3a414a" d="M173-56C173 11 92 0 25 0v-190h32v80c58-2 117-2 116 54zm-34 0c0-39-44-31-82-32v66c39 0 82 6 82-34" id="av"/><g id="h"><use transform="matrix(0.06172839506172839,0,0,0.06172839506172839,0,0)" xlink:href="#W"/><use transform="matrix(0.06172839506172839,0,0,0.06172839506172839,13.827160493827158,0)" xlink:href="#X"/><use transform="matrix(0.06172839506172839,0,0,0.06172839506172839,25.67901234567901,0)" xlink:href="#ag"/><use transform="matrix(0.06172839506172839,0,0,0.06172839506172839,35.61728395061728,0)" xlink:href="#aj"/><use transform="matrix(0.06172839506172839,0,0,0.06172839506172839,46.234567901234556,0)" xlink:href="#at"/><use transform="matrix(0.06172839506172839,0,0,0.06172839506172839,59.19753086419752,0)" xlink:href="#av"/><use transform="matrix(0.06172839506172839,0,0,0.06172839506172839,69.01234567901233,0)" xlink:href="#aa"/><use transform="matrix(0.06172839506172839,0,0,0.06172839506172839,78.88888888888887,0)" xlink:href="#ac"/><use transform="matrix(0.06172839506172839,0,0,0.06172839506172839,90.74074074074073,0)" xlink:href="#aa"/><use transform="matrix(0.06172839506172839,0,0,0.06172839506172839,100.86419753086419,0)" xlink:href="#ai"/></g><path fill="#3a414a" d="M141 0L90-78 38 0H4l68-98-65-92h35l48 74 47-74h35l-64 92 68 98h-35" id="aw"/><path fill="#3a414a" d="M156-87c-4 1-15 3-20 3V0h-31v-84c-5 0-16-2-20-3L36 0H1l62-104c-22-24-40-59-60-86h33l50 76c5 5 9 7 19 7v-83h31v83c27-1 31-21 43-41l26-42h33l-60 86L240 0h-36" id="ax"/><g id="i"><use transform="matrix(0.06172839506172839,0,0,0.06172839506172839,0,0)" xlink:href="#ah"/><use transform="matrix(0.06172839506172839,0,0,0.06172839506172839,11.975308641975309,0)" xlink:href="#ab"/><use transform="matrix(0.06172839506172839,0,0,0.06172839506172839,24.320987654320987,0)" xlink:href="#ao"/><use transform="matrix(0.06172839506172839,0,0,0.06172839506172839,36.41975308641975,0)" xlink:href="#aw"/><use transform="matrix(0.06172839506172839,0,0,0.06172839506172839,47.28395061728395,0)" xlink:href="#ao"/><use transform="matrix(0.06172839506172839,0,0,0.06172839506172839,59.1358024691358,0)" xlink:href="#ap"/><use transform="matrix(0.06172839506172839,0,0,0.06172839506172839,72.09876543209876,0)" xlink:href="#ax"/><use transform="matrix(0.06172839506172839,0,0,0.06172839506172839,86.91358024691357,0)" xlink:href="#X"/><use transform="matrix(0.06172839506172839,0,0,0.06172839506172839,99.25925925925925,0)" xlink:href="#ak"/><use transform="matrix(0.06172839506172839,0,0,0.06172839506172839,111.48148148148147,0)" xlink:href="#ak"/><use transform="matrix(0.06172839506172839,0,0,0.06172839506172839,123.7037037037037,0)" xlink:href="#af"/></g><path fill="#3a414a" d="M160-131c35 5 61 23 61 61C221 17 115-2 30 0v-248c76 3 177-17 177 60 0 33-19 50-47 57zm-97-11c50-1 110 9 110-42 0-47-63-36-110-37v79zm0 115c55-2 124 14 124-45 0-56-70-42-124-44v89" id="ay"/><g id="j"><use transform="matrix(0.06172839506172839,0,0,0.06172839506172839,0,0)" xlink:href="#ay"/><use transform="matrix(0.06172839506172839,0,0,0.06172839506172839,14.814814814814813,0)" xlink:href="#ae"/><use transform="matrix(0.06172839506172839,0,0,0.06172839506172839,19.691358024691354,0)" xlink:href="#ap"/><use transform="matrix(0.06172839506172839,0,0,0.06172839506172839,32.654320987654316,0)" xlink:href="#ap"/><use transform="matrix(0.06172839506172839,0,0,0.06172839506172839,45.61728395061728,0)" xlink:href="#ae"/><use transform="matrix(0.06172839506172839,0,0,0.06172839506172839,50.49382716049382,0)" xlink:href="#at"/></g><path fill="#3a414a" d="M205 0l-28-72H64L36 0H1l101-248h38L239 0h-34zm-38-99l-47-123c-12 45-31 82-46 123h93" id="az"/><g id="k"><use transform="matrix(0.06172839506172839,0,0,0.06172839506172839,0,0)" xlink:href="#az"/><use transform="matrix(0.06172839506172839,0,0,0.06172839506172839,14.814814814814813,0)" xlink:href="#ap"/><use transform="matrix(0.06172839506172839,0,0,0.06172839506172839,27.777777777777775,0)" xlink:href="#as"/><use transform="matrix(0.06172839506172839,0,0,0.06172839506172839,43.02469135802469,0)" xlink:href="#ae"/><use transform="matrix(0.06172839506172839,0,0,0.06172839506172839,47.901234567901234,0)" xlink:href="#ak"/><use transform="matrix(0.06172839506172839,0,0,0.06172839506172839,60.123456790123456,0)" xlink:href="#ae"/><use transform="matrix(0.06172839506172839,0,0,0.06172839506172839,65,0)" xlink:href="#Z"/><use transform="matrix(0.06172839506172839,0,0,0.06172839506172839,76.11111111111111,0)" xlink:href="#aa"/><use transform="matrix(0.06172839506172839,0,0,0.06172839506172839,86.23456790123457,0)" xlink:href="#ab"/><use transform="matrix(0.06172839506172839,0,0,0.06172839506172839,98.58024691358025,0)" xlink:href="#ac"/><use transform="matrix(0.06172839506172839,0,0,0.06172839506172839,110.43209876543212,0)" xlink:href="#aa"/><use transform="matrix(0.06172839506172839,0,0,0.06172839506172839,120.30864197530866,0)" xlink:href="#ao"/><use transform="matrix(0.06172839506172839,0,0,0.06172839506172839,132.65432098765433,0)" xlink:href="#ab"/></g><g id="l"><use transform="matrix(0.06172839506172839,0,0,0.06172839506172839,0,0)" xlink:href="#Z"/><use transform="matrix(0.06172839506172839,0,0,0.06172839506172839,11.11111111111111,0)" xlink:href="#ai"/><use transform="matrix(0.06172839506172839,0,0,0.06172839506172839,23.51851851851852,0)" xlink:href="#Z"/><use transform="matrix(0.06172839506172839,0,0,0.06172839506172839,34.62962962962963,0)" xlink:href="#aa"/><use transform="matrix(0.06172839506172839,0,0,0.06172839506172839,44.50617283950618,0)" xlink:href="#X"/><use transform="matrix(0.06172839506172839,0,0,0.06172839506172839,56.851851851851855,0)" xlink:href="#as"/><use transform="matrix(0.06172839506172839,0,0,0.06172839506172839,72.09876543209877,0)" xlink:href="#ai"/></g><path fill="#3a414a" d="M547-654H370V0H178v-1456h192v642h150l509-642h239L712-750 1309 0h-235" id="aA"/><path fill="#3a414a" d="M584 20C278 26 81-227 91-551c10-320 175-545 491-551 308-5 503 247 494 573-9 322-175 543-492 549zm-2-970c-208 0-305 185-305 421 0 216 106 398 307 398 211 0 307-186 307-420 0-214-109-399-309-399" id="aB"/><path fill="#3a414a" d="M632-1102c291 0 422 251 422 573 0 297-141 548-419 549-131 0-235-42-310-125v521H140v-1498h169l9 120c75-93 180-140 314-140zm-53 971c207 0 290-180 290-419 0-218-92-395-292-395-112 0-196 50-252 149v517c55 99 140 148 254 148" id="aC"/><path fill="#3a414a" d="M840-1082h185V0H840v-789L341 0H156v-1082h185v790" id="aD"/><path fill="#3a414a" d="M277-555c0 244 77 420 297 424 127 2 249-93 255-210h175C980-127 805 20 574 20 258 20 81-222 92-562c11-319 164-533 481-540 237-5 426 165 431 392H829c-7-133-115-242-256-240-209 4-296 166-296 395" id="aE"/><path fill="#3a414a" d="M944-932H581V0H396v-932H40v-150h904v150" id="aF"/><path fill="#3a414a" d="M494-271l252-811h198L509 167C425 381 299 474 84 421V271c167 16 242-37 283-173l41-110L22-1082h202" id="aG"/><path fill="#3a414a" d="M1065-307C1065-87 885 0 646 0H157v-1082c368 12 869-81 869 297 0 119-78 193-178 228 117 26 217 115 217 250zM648-149c136 1 231-44 231-164 0-108-79-162-238-162H342v326h306zM342-623h239c173 0 260-51 260-152s-82-157-246-157H342v309" id="aH"/><path fill="#3a414a" d="M561-1102c238-4 403 126 403 351v498c0 99 13 178 38 237V0H808c-11-21-19-59-26-114C696-25 593 20 474 20c-199 0-368-130-365-320 4-251 214-359 490-356h180v-85c-1-135-86-212-229-212-115 0-232 67-233 171H131c20-205 206-316 430-320zM294-326c0 117 90 185 207 185 122 0 239-75 278-162v-222H634c-227 0-340 66-340 199" id="aI"/><path fill="#3a414a" d="M521-360c-266 2-418-141-418-400v-323h185v329c3 161 81 242 233 242 85 0 169-11 250-32v-538h186V0H771v-392c-81 21-165 32-250 32" id="aJ"/><g id="m"><use transform="matrix(0.010416666666666668,0,0,0.010416666666666668,0,0)" xlink:href="#aA"/><use transform="matrix(0.010416666666666668,0,0,0.010416666666666668,13.427083333333336,0)" xlink:href="#aB"/><use transform="matrix(0.010416666666666668,0,0,0.010416666666666668,25.593750000000004,0)" xlink:href="#aC"/><use transform="matrix(0.010416666666666668,0,0,0.010416666666666668,37.56250000000001,0)" xlink:href="#aD"/><use transform="matrix(0.010416666666666668,0,0,0.010416666666666668,49.87500000000001,0)" xlink:href="#aE"/><use transform="matrix(0.010416666666666668,0,0,0.010416666666666668,61.04166666666667,0)" xlink:href="#aF"/><use transform="matrix(0.010416666666666668,0,0,0.010416666666666668,71.40625000000001,0)" xlink:href="#aG"/><use transform="matrix(0.010416666666666668,0,0,0.010416666666666668,81.50000000000001,0)" xlink:href="#aH"/><use transform="matrix(0.010416666666666668,0,0,0.010416666666666668,93.68750000000001,0)" xlink:href="#aI"/><use transform="matrix(0.010416666666666668,0,0,0.010416666666666668,105.29166666666667,0)" xlink:href="#aJ"/></g><path fill="#3a414a" d="M599-131c141 0 220-65 285-146l113 88C906-50 770 20 589 20 281 21 93-214 93-545c0-223 93-397 233-485 74-48 154-72 240-72 300 2 449 218 445 537v77H278c0 197 129 357 321 357zm227-509c-3-180-88-310-260-310-170 0-264 140-282 310h542" id="aK"/><path fill="#3a414a" d="M763-245l368-837h231V0h-185v-787L827 0H699L342-804V0H157v-1082h240" id="aL"/><g id="n"><use transform="matrix(0.010416666666666668,0,0,0.010416666666666668,0,0)" xlink:href="#aE"/><use transform="matrix(0.010416666666666668,0,0,0.010416666666666668,11.166666666666668,0)" xlink:href="#aD"/><use transform="matrix(0.010416666666666668,0,0,0.010416666666666668,23.479166666666668,0)" xlink:href="#aE"/><use transform="matrix(0.010416666666666668,0,0,0.010416666666666668,34.64583333333334,0)" xlink:href="#aF"/><use transform="matrix(0.010416666666666668,0,0,0.010416666666666668,44.06250000000001,0)" xlink:href="#aK"/><use transform="matrix(0.010416666666666668,0,0,0.010416666666666668,55.36458333333334,0)" xlink:href="#aL"/><use transform="matrix(0.010416666666666668,0,0,0.010416666666666668,71.18750000000001,0)" xlink:href="#aD"/></g><path fill="#3a414a" d="M319-664C304-226 428 158 661 357l-38 113c-89-49-172-133-254-248C142-97 71-578 194-1025c67-244 240-513 429-618l38 122c-201 153-330 502-342 857" id="aM"/><path fill="#3a414a" d="M840-1082h185V0H840v-789L341 0H156v-1082h185v790zm-249-245c93 0 150-56 149-149h150c2 164-130 268-299 268s-302-105-300-268h151c0 94 53 149 149 149" id="aN"/><path fill="#3a414a" d="M134 290L29 218c97-132 105-239 98-437h181c1 144 5 239-50 347-34 67-74 121-124 162" id="aO"/><g id="o"><use transform="matrix(0.010416666666666668,0,0,0.010416666666666668,0,0)" xlink:href="#aM"/><use transform="matrix(0.010416666666666668,0,0,0.010416666666666668,7.291666666666668,0)" xlink:href="#aF"/><use transform="matrix(0.010416666666666668,0,0,0.010416666666666668,17.10416666666667,0)" xlink:href="#aB"/><use transform="matrix(0.010416666666666668,0,0,0.010416666666666668,29.270833333333343,0)" xlink:href="#aN"/><use transform="matrix(0.010416666666666668,0,0,0.010416666666666668,41.58333333333334,0)" xlink:href="#aO"/></g><path fill="#3a414a" d="M331-1082v931h396v-931h185v931h395v-931h186v931h152l-18 472h-166V0H145v-1082h186" id="aP"/><g id="p"><use transform="matrix(0.010416666666666668,0,0,0.010416666666666668,0,0)" xlink:href="#aP"/><use transform="matrix(0.010416666666666668,0,0,0.010416666666666668,17.645833333333336,0)" xlink:href="#aB"/></g><path fill="#3a414a" d="M1025 0H840v-929H342V0H156v-1082h869V0" id="aQ"/><path fill="#3a414a" d="M503-687l240-395h216L605-547 970 0H756L506-405 256 0H41l365-547-354-535h214" id="aR"/><path fill="#3a414a" d="M131-151l64-79c72-93 116-233 123-420l17-432h697v931h139v469H986V0H231v318H46l1-469h84zm219 0h497v-760H514l-11 258c-11 215-62 383-153 502" id="aS"/><path fill="#3a414a" d="M1021-358C1021-135 848 0 615 0H157v-1082h185v373h281c230-1 398 128 398 351zm-186 7c0-123-84-208-211-207H342v407h275c132 2 218-72 218-200" id="aT"/><g id="q"><use transform="matrix(0.010416666666666668,0,0,0.010416666666666668,0,0)" xlink:href="#aQ"/><use transform="matrix(0.010416666666666668,0,0,0.010416666666666668,12.312500000000002,0)" xlink:href="#aC"/><use transform="matrix(0.010416666666666668,0,0,0.010416666666666668,24.281250000000004,0)" xlink:href="#aB"/><use transform="matrix(0.010416666666666668,0,0,0.010416666666666668,36.22916666666667,0)" xlink:href="#aR"/><use transform="matrix(0.010416666666666668,0,0,0.010416666666666668,46.59374999999999,0)" xlink:href="#aB"/><use transform="matrix(0.010416666666666668,0,0,0.010416666666666668,58.01041666666667,0)" xlink:href="#aS"/><use transform="matrix(0.010416666666666668,0,0,0.010416666666666668,70.88541666666667,0)" xlink:href="#aD"/><use transform="matrix(0.010416666666666668,0,0,0.010416666666666668,83.19791666666667,0)" xlink:href="#aF"/><use transform="matrix(0.010416666666666668,0,0,0.010416666666666668,93.44791666666667,0)" xlink:href="#aT"/></g><path fill="#3a414a" d="M1027-1082V0H841v-929H473c-17 260-16 659-115 804C293-29 197 9 44 0v-163c96 0 150-27 182-108 63-160 54-573 70-811h731" id="aU"/><path fill="#3a414a" d="M104-752c0-211 183-330 408-330h455V0H781v-421H502L247 0H47l272-449c-125-44-215-146-215-303zm411-180c-125-3-224 66-225 182-1 108 86 177 197 177h294v-359H515" id="aV"/><path fill="#3a414a" d="M156-1082h186v931h498v-931h185v931h129l-18 472H970V0H156v-1082" id="aW"/><path fill="#3a414a" d="M341 0H156v-1082h185V0zm-91-1264c-68 0-108-42-109-105 0-62 41-107 109-107s110 44 110 107-42 105-110 105" id="aX"/><path fill="#3a414a" d="M341 0H155v-1082h186V0zM41-1265c-68 0-108-42-109-105 0-63 41-106 109-106s110 43 110 106-42 105-110 105zm430 2c-68 0-108-42-109-105 0-62 41-107 109-107s110 44 110 107-42 105-110 105" id="aY"/><path fill="#3a414a" d="M38 357C331 141 457-487 337-984c-53-219-157-429-299-546l39-113c190 106 362 378 431 621 75 268 76 597 0 868C440 88 266 365 77 470" id="aZ"/><g id="r"><use transform="matrix(0.010416666666666668,0,0,0.010416666666666668,0,0)" xlink:href="#aE"/><use transform="matrix(0.010416666666666668,0,0,0.010416666666666668,11.166666666666668,0)" xlink:href="#aD"/><use transform="matrix(0.010416666666666668,0,0,0.010416666666666668,23.479166666666668,0)" xlink:href="#aL"/><use transform="matrix(0.010416666666666668,0,0,0.010416666666666668,39.30208333333334,0)" xlink:href="#aG"/><use transform="matrix(0.010416666666666668,0,0,0.010416666666666668,48.96875000000001,0)" xlink:href="#aU"/><use transform="matrix(0.010416666666666668,0,0,0.010416666666666668,61.30208333333334,0)" xlink:href="#aV"/><use transform="matrix(0.010416666666666668,0,0,0.010416666666666668,73.01041666666667,0)" xlink:href="#aW"/><use transform="matrix(0.010416666666666668,0,0,0.010416666666666668,85.64583333333334,0)" xlink:href="#aX"/><use transform="matrix(0.010416666666666668,0,0,0.010416666666666668,90.82291666666667,0)" xlink:href="#aY"/><use transform="matrix(0.010416666666666668,0,0,0.010416666666666668,96.09374999999999,0)" xlink:href="#aZ"/></g><path fill="#333" d="M209-70c3 90-151 93-187 34-5-9-10-18-14-29l46-16c10 24 24 44 58 44 27 0 46-10 46-35-1-32-31-34-68-34v-40c35 1 63-3 63-34 0-23-16-34-41-33-31 0-43 20-51 43l-47-10c14-43 42-71 99-71 51 0 90 18 90 64 0 34-20 53-50 59 32 5 56 21 56 58" id="ba"/><path fill="#333" d="M133-34C117-15 103 5 69 4 32 3 11-16 11-54c-1-60 55-63 116-61 1-26-3-47-28-47-18 1-26 9-28 27l-52-2c7-38 36-58 82-57s74 22 75 68l1 82c-1 14 12 18 25 15v27c-30 8-71 5-69-32zm-48 3c29 0 43-24 42-57-32 0-66-3-65 30 0 17 8 27 23 27" id="bb"/><path fill="#333" d="M192-190V0h-49v-157H75V0H25v-190h167" id="bc"/><path fill="#333" d="M110-194c64 0 96 36 96 99 0 64-35 99-97 99-61 0-95-36-95-99 0-62 34-99 96-99zm-1 164c35 0 45-28 45-65 0-40-10-65-43-65-34 0-45 26-45 65 0 36 10 65 43 65" id="bd"/><path fill="#333" d="M207-55C206 19 99-3 25 0v-190c69 5 172-21 177 47 2 30-24 34-43 44 27 3 48 13 48 44zm-50-2c0-36-48-24-82-26v52c34-2 82 10 82-26zm-7-80c0-31-45-20-75-22v45c31-3 75 10 75-23" id="be"/><path fill="#333" d="M75-190v75h68v-75h49V0h-49v-81H75V0H25v-190h50" id="bf"/><path fill="#333" d="M185-48c-13 30-37 53-82 52C43 2 14-33 14-96s30-98 90-98c62 0 83 45 84 108H66c0 31 8 55 39 56 18 0 30-7 34-22zm-45-69c5-46-57-63-70-21-2 6-4 13-4 21h74" id="bg"/><g id="s"><use transform="matrix(0.04938271604938272,0,0,0.04938271604938272,0,0)" xlink:href="#ba"/><use transform="matrix(0.04938271604938272,0,0,0.04938271604938272,11.111111111111112,0)" xlink:href="#bb"/><use transform="matrix(0.04938271604938272,0,0,0.04938271604938272,20.98765432098766,0)" xlink:href="#bc"/><use transform="matrix(0.04938271604938272,0,0,0.04938271604938272,31.703703703703713,0)" xlink:href="#bd"/><use transform="matrix(0.04938271604938272,0,0,0.04938271604938272,42.518518518518526,0)" xlink:href="#be"/><use transform="matrix(0.04938271604938272,0,0,0.04938271604938272,53.4320987654321,0)" xlink:href="#bf"/><use transform="matrix(0.04938271604938272,0,0,0.04938271604938272,64.14814814814815,0)" xlink:href="#bg"/><use transform="matrix(0.04938271604938272,0,0,0.04938271604938272,74.0246913580247,0)" xlink:href="#bf"/><use transform="matrix(0.04938271604938272,0,0,0.04938271604938272,84.74074074074075,0)" xlink:href="#bb"/></g><path fill="#333" d="M236-194c50 0 64 45 64 98-1 54-16 100-67 100-28 0-43-15-54-34l1 105h-46V-31C125-8 108 4 78 4 29 4 14-43 14-95c0-54 17-97 68-99 29-1 42 16 53 34l-1-101h46v102c10-23 27-35 56-35zM100-30c49 0 50-130 0-130-31 0-33 31-34 65 0 43 12 65 34 65zm115 0c48-1 47-129 0-130-50 3-49 127 0 130" id="bh"/><path fill="#333" d="M135-194c53 0 70 44 70 98 0 56-19 98-73 100-31 1-45-17-59-34 3 33 2 69 2 105H25l-1-265h48c2 10 0 23 3 31 11-24 29-35 60-35zM114-30c33 0 39-31 40-66 0-38-9-64-40-64-56 0-55 130 0 130" id="bi"/><path fill="#333" d="M153 0h-38L66-156 68 0H25v-190h66c14 50 33 95 43 149 9-54 29-100 43-149h64V0h-43l3-156" id="bj"/><g id="t"><use transform="matrix(0.04938271604938272,0,0,0.04938271604938272,0,0)" xlink:href="#bh"/><use transform="matrix(0.04938271604938272,0,0,0.04938271604938272,15.308641975308642,0)" xlink:href="#bd"/><use transform="matrix(0.04938271604938272,0,0,0.04938271604938272,26.12345679012346,0)" xlink:href="#bi"/><use transform="matrix(0.04938271604938272,0,0,0.04938271604938272,36.69135802469136,0)" xlink:href="#bj"/><use transform="matrix(0.04938271604938272,0,0,0.04938271604938272,49.580246913580254,0)" xlink:href="#bb"/></g><path fill="#333" d="M167-53c1 59-90 70-131 42-13-9-22-23-27-40l43-7c1 32 65 40 64 3-1-25-25-28-52-28v-31c25 0 50-2 50-26 0-32-58-28-59 3l-41-4c4-67 144-74 147-3 1 30-22 38-44 45 28 3 49 16 50 46" id="bk"/><path fill="#333" d="M71-190L68-54l78-136h50V0h-45l3-136L78 0H25v-190h46" id="bl"/><path fill="#333" d="M10-190h156v33h-53V0H63v-157H10v-33" id="bm"/><path fill="#333" d="M123 10C108 53 80 86 19 72V37c35 8 53-11 59-39L3-190h52l48 148c12-52 28-100 44-148h51" id="bn"/><g id="u"><use transform="matrix(0.04938271604938272,0,0,0.04938271604938272,0,0)" xlink:href="#bk"/><use transform="matrix(0.04938271604938272,0,0,0.04938271604938272,8.54320987654321,0)" xlink:href="#bb"/><use transform="matrix(0.04938271604938272,0,0,0.04938271604938272,18.419753086419753,0)" xlink:href="#bc"/><use transform="matrix(0.04938271604938272,0,0,0.04938271604938272,29.135802469135804,0)" xlink:href="#bl"/><use transform="matrix(0.04938271604938272,0,0,0.04938271604938272,40.04938271604939,0)" xlink:href="#bm"/><use transform="matrix(0.04938271604938272,0,0,0.04938271604938272,49.18518518518519,0)" xlink:href="#bn"/></g><path fill="#3a414a" d="M63-143c77-2 155-4 155 70C218 13 117 1 30 0v-248h162v28H63v77zm0 116c54-1 121 11 121-45 0-53-67-44-121-44v89" id="bo"/><g id="v"><use transform="matrix(0.06172839506172839,0,0,0.06172839506172839,0,0)" xlink:href="#bo"/><use transform="matrix(0.06172839506172839,0,0,0.06172839506172839,14.5679012345679,0)" xlink:href="#ac"/><use transform="matrix(0.06172839506172839,0,0,0.06172839506172839,26.666666666666664,0)" xlink:href="#ag"/><use transform="matrix(0.06172839506172839,0,0,0.06172839506172839,36.85185185185185,0)" xlink:href="#ac"/></g><g id="w"><use transform="matrix(0.06172839506172839,0,0,0.06172839506172839,0,0)" xlink:href="#ap"/><use transform="matrix(0.06172839506172839,0,0,0.06172839506172839,12.962962962962962,0)" xlink:href="#ac"/><use transform="matrix(0.06172839506172839,0,0,0.06172839506172839,25.30864197530864,0)" xlink:href="#ak"/><use transform="matrix(0.06172839506172839,0,0,0.06172839506172839,37.53086419753086,0)" xlink:href="#ai"/><use transform="matrix(0.06172839506172839,0,0,0.06172839506172839,49.938271604938265,0)" xlink:href="#aw"/></g><g id="x"><use transform="matrix(0.06172839506172839,0,0,0.06172839506172839,0,0)" xlink:href="#ag"/><use transform="matrix(0.06172839506172839,0,0,0.06172839506172839,10.185185185185185,0)" xlink:href="#ac"/><use transform="matrix(0.06172839506172839,0,0,0.06172839506172839,22.530864197530864,0)" xlink:href="#ah"/><use transform="matrix(0.06172839506172839,0,0,0.06172839506172839,34.50617283950617,0)" xlink:href="#ai"/><use transform="matrix(0.06172839506172839,0,0,0.06172839506172839,46.913580246913575,0)" xlink:href="#aa"/><use transform="matrix(0.06172839506172839,0,0,0.06172839506172839,57.03703703703703,0)" xlink:href="#ae"/><use transform="matrix(0.06172839506172839,0,0,0.06172839506172839,61.913580246913575,0)" xlink:href="#al"/></g><g id="y"><use transform="matrix(0.06172839506172839,0,0,0.06172839506172839,0,0)" xlink:href="#ak"/><use transform="matrix(0.06172839506172839,0,0,0.06172839506172839,12.222222222222221,0)" xlink:href="#ac"/><use transform="matrix(0.06172839506172839,0,0,0.06172839506172839,24.5679012345679,0)" xlink:href="#al"/><use transform="matrix(0.06172839506172839,0,0,0.06172839506172839,35.37037037037037,0)" xlink:href="#am"/><use transform="matrix(0.06172839506172839,0,0,0.06172839506172839,46.913580246913575,0)" xlink:href="#al"/><use transform="matrix(0.06172839506172839,0,0,0.06172839506172839,58.703703703703695,0)" xlink:href="#ak"/><use transform="matrix(0.06172839506172839,0,0,0.06172839506172839,70.92592592592592,0)" xlink:href="#ak"/><use transform="matrix(0.06172839506172839,0,0,0.06172839506172839,83.14814814814815,0)" xlink:href="#af"/></g><g id="z"><use transform="matrix(0.06172839506172839,0,0,0.06172839506172839,0,0)" xlink:href="#ab"/><use transform="matrix(0.06172839506172839,0,0,0.06172839506172839,12.345679012345679,0)" xlink:href="#X"/><use transform="matrix(0.06172839506172839,0,0,0.06172839506172839,24.19753086419753,0)" xlink:href="#ag"/><use transform="matrix(0.06172839506172839,0,0,0.06172839506172839,34.135802469135804,0)" xlink:href="#aj"/><use transform="matrix(0.06172839506172839,0,0,0.06172839506172839,44.75308641975309,0)" xlink:href="#at"/><use transform="matrix(0.06172839506172839,0,0,0.06172839506172839,57.71604938271605,0)" xlink:href="#av"/><use transform="matrix(0.06172839506172839,0,0,0.06172839506172839,67.53086419753086,0)" xlink:href="#aa"/><use transform="matrix(0.06172839506172839,0,0,0.06172839506172839,77.4074074074074,0)" xlink:href="#ac"/><use transform="matrix(0.06172839506172839,0,0,0.06172839506172839,89.25925925925927,0)" xlink:href="#aa"/><use transform="matrix(0.06172839506172839,0,0,0.06172839506172839,99.38271604938272,0)" xlink:href="#ae"/><use transform="matrix(0.06172839506172839,0,0,0.06172839506172839,104.25925925925927,0)" xlink:href="#al"/></g><g id="A"><use transform="matrix(0.06172839506172839,0,0,0.06172839506172839,0,0)" xlink:href="#aa"/><use transform="matrix(0.06172839506172839,0,0,0.06172839506172839,10.123456790123456,0)" xlink:href="#ab"/><use transform="matrix(0.06172839506172839,0,0,0.06172839506172839,22.469135802469133,0)" xlink:href="#X"/><use transform="matrix(0.06172839506172839,0,0,0.06172839506172839,34.81481481481481,0)" xlink:href="#ak"/><use transform="matrix(0.06172839506172839,0,0,0.06172839506172839,47.03703703703703,0)" xlink:href="#aj"/><use transform="matrix(0.06172839506172839,0,0,0.06172839506172839,58.14814814814814,0)" xlink:href="#al"/><use transform="matrix(0.06172839506172839,0,0,0.06172839506172839,69.69135802469135,0)" xlink:href="#ac"/><use transform="matrix(0.06172839506172839,0,0,0.06172839506172839,82.03703703703704,0)" xlink:href="#ak"/><use transform="matrix(0.06172839506172839,0,0,0.06172839506172839,94.25925925925927,0)" xlink:href="#av"/></g><path fill="#333" d="M24 0v-248h52V0H24" id="bp"/><path fill="#333" d="M24-248c120-7 223 5 221 122C244-46 201 0 124 0H24v-248zM76-40c74 7 117-18 117-86 0-67-45-88-117-82v168" id="bq"/><g id="B"><use transform="matrix(0.04938271604938272,0,0,0.04938271604938272,0,0)" xlink:href="#bp"/><use transform="matrix(0.04938271604938272,0,0,0.04938271604938272,4.938271604938272,0)" xlink:href="#bq"/></g><path fill="#333" d="M25-190h50v81c22-2 24-18 33-36l22-45h49c-19 30-32 64-55 90L180 0h-50L89-81c-3 2-9 2-14 2V0H25v-190" id="br"/><path fill="#333" d="M190-63c-7 42-38 67-86 67-59 0-84-38-90-98-12-110 154-137 174-36l-49 2c-2-19-15-32-35-32-30 0-35 28-38 64-6 74 65 87 74 30" id="bs"/><path fill="#333" d="M135-73C95-53 15-45 15-113v-77h49c4 41-18 104 39 95l32-8v-87h49V0h-49v-73" id="bt"/><path fill="#333" d="M76-54c-1 42 2 86-19 110H24C36 42 46 24 48 0H25v-54h51" id="bu"/><g id="C"><use transform="matrix(0.04938271604938272,0,0,0.04938271604938272,0,0)" xlink:href="#br"/><use transform="matrix(0.04938271604938272,0,0,0.04938271604938272,8.641975308641976,0)" xlink:href="#bd"/><use transform="matrix(0.04938271604938272,0,0,0.04938271604938272,19.45679012345679,0)" xlink:href="#bi"/><use transform="matrix(0.04938271604938272,0,0,0.04938271604938272,30.271604938271608,0)" xlink:href="#bl"/><use transform="matrix(0.04938271604938272,0,0,0.04938271604938272,41.18518518518519,0)" xlink:href="#bs"/><use transform="matrix(0.04938271604938272,0,0,0.04938271604938272,51.061728395061735,0)" xlink:href="#bm"/><use transform="matrix(0.04938271604938272,0,0,0.04938271604938272,60.19753086419754,0)" xlink:href="#bn"/><use transform="matrix(0.04938271604938272,0,0,0.04938271604938272,70.07407407407408,0)" xlink:href="#be"/><use transform="matrix(0.04938271604938272,0,0,0.04938271604938272,80.74074074074075,0)" xlink:href="#bb"/><use transform="matrix(0.04938271604938272,0,0,0.04938271604938272,90.17283950617285,0)" xlink:href="#bt"/><use transform="matrix(0.04938271604938272,0,0,0.04938271604938272,100.49382716049384,0)" xlink:href="#bb"/><use transform="matrix(0.04938271604938272,0,0,0.04938271604938272,110.37037037037038,0)" xlink:href="#bu"/></g><path fill="#333" d="M154 0v-157H99C89-107 89-44 65-9 54 6 26 5 4 1v-33c46 5 36-55 46-98 6-25 3-25 8-60h146V0h-50" id="bv"/><path fill="#333" d="M206-58C204 19 101-3 25 0v-190h50v76c63-1 132-4 131 56zm-50 0c0-33-48-23-81-25v52c34-2 81 8 81-27" id="bw"/><g id="D"><use transform="matrix(0.04938271604938272,0,0,0.04938271604938272,0,0)" xlink:href="#bi"/><use transform="matrix(0.04938271604938272,0,0,0.04938271604938272,10.814814814814815,0)" xlink:href="#bg"/><use transform="matrix(0.04938271604938272,0,0,0.04938271604938272,20.69135802469136,0)" xlink:href="#bk"/><use transform="matrix(0.04938271604938272,0,0,0.04938271604938272,29.037037037037038,0)" xlink:href="#bn"/><use transform="matrix(0.04938271604938272,0,0,0.04938271604938272,38.66666666666667,0)" xlink:href="#bv"/><use transform="matrix(0.04938271604938272,0,0,0.04938271604938272,49.92592592592593,0)" xlink:href="#bw"/><use transform="matrix(0.04938271604938272,0,0,0.04938271604938272,59.25925925925927,0)" xlink:href="#bm"/><use transform="matrix(0.04938271604938272,0,0,0.04938271604938272,67.95061728395062,0)" xlink:href="#bb"/><use transform="matrix(0.04938271604938272,0,0,0.04938271604938272,77.82716049382717,0)" xlink:href="#bm"/></g><path fill="#333" d="M24-248c93 1 206-16 204 79-1 75-69 88-152 82V0H24v-248zm52 121c47 0 100 7 100-41 0-47-54-39-100-39v80" id="bx"/><g id="E"><use transform="matrix(0.04938271604938272,0,0,0.04938271604938272,0,0)" xlink:href="#bx"/><use transform="matrix(0.04938271604938272,0,0,0.04938271604938272,11.407407407407408,0)" xlink:href="#bg"/><use transform="matrix(0.04938271604938272,0,0,0.04938271604938272,21.283950617283953,0)" xlink:href="#bk"/><use transform="matrix(0.04938271604938272,0,0,0.04938271604938272,29.629629629629633,0)" xlink:href="#bn"/><use transform="matrix(0.04938271604938272,0,0,0.04938271604938272,39.25925925925927,0)" xlink:href="#bv"/><use transform="matrix(0.04938271604938272,0,0,0.04938271604938272,50.518518518518526,0)" xlink:href="#bw"/><use transform="matrix(0.04938271604938272,0,0,0.04938271604938272,59.851851851851855,0)" xlink:href="#bm"/><use transform="matrix(0.04938271604938272,0,0,0.04938271604938272,68.54320987654322,0)" xlink:href="#bb"/><use transform="matrix(0.04938271604938272,0,0,0.04938271604938272,78.41975308641976,0)" xlink:href="#bm"/><use transform="matrix(0.04938271604938272,0,0,0.04938271604938272,87.11111111111111,0)" xlink:href="#bl"/></g><path fill="#333" d="M25-224v-37h50v37H25zM25 0v-190h50V0H25" id="by"/><g id="F"><use transform="matrix(0.04938271604938272,0,0,0.04938271604938272,0,0)" xlink:href="#br"/><use transform="matrix(0.04938271604938272,0,0,0.04938271604938272,8.641975308641976,0)" xlink:href="#bd"/><use transform="matrix(0.04938271604938272,0,0,0.04938271604938272,19.45679012345679,0)" xlink:href="#bi"/><use transform="matrix(0.04938271604938272,0,0,0.04938271604938272,30.271604938271608,0)" xlink:href="#bl"/><use transform="matrix(0.04938271604938272,0,0,0.04938271604938272,41.18518518518519,0)" xlink:href="#bs"/><use transform="matrix(0.04938271604938272,0,0,0.04938271604938272,51.061728395061735,0)" xlink:href="#bm"/><use transform="matrix(0.04938271604938272,0,0,0.04938271604938272,60.19753086419754,0)" xlink:href="#bn"/><use transform="matrix(0.04938271604938272,0,0,0.04938271604938272,70.07407407407408,0)" xlink:href="#be"/><use transform="matrix(0.04938271604938272,0,0,0.04938271604938272,80.74074074074075,0)" xlink:href="#bb"/><use transform="matrix(0.04938271604938272,0,0,0.04938271604938272,90.17283950617285,0)" xlink:href="#bt"/><use transform="matrix(0.04938271604938272,0,0,0.04938271604938272,100.49382716049384,0)" xlink:href="#by"/><use transform="matrix(0.04938271604938272,0,0,0.04938271604938272,105.4320987654321,0)" xlink:href="#be"/></g><path fill="#333" d="M140-251c80 0 125 45 125 126S219 4 139 4C58 4 15-44 15-125s44-126 125-126zm-1 214c52 0 73-35 73-88 0-50-21-86-72-86-52 0-73 35-73 86s22 88 72 88" id="bz"/><path fill="#333" d="M140-190v33H75V0H25v-190h115" id="bA"/><path fill="#333" d="M25 0v-190h50v157h68v-157h49v157h26V72h-43V0H25" id="bB"/><path fill="#333" d="M15-136c0-71 99-51 170-54V0h-50v-76h-33L54 0H0l56-83c-25-6-41-23-41-53zm51 3c0 32 38 26 70 26v-52c-31 1-70-6-70 26" id="bC"/><g id="G"><use transform="matrix(0.04938271604938272,0,0,0.04938271604938272,0,0)" xlink:href="#bz"/><use transform="matrix(0.04938271604938272,0,0,0.04938271604938272,13.827160493827162,0)" xlink:href="#bi"/><use transform="matrix(0.04938271604938272,0,0,0.04938271604938272,24.641975308641975,0)" xlink:href="#bA"/><use transform="matrix(0.04938271604938272,0,0,0.04938271604938272,32,0)" xlink:href="#bb"/><use transform="matrix(0.04938271604938272,0,0,0.04938271604938272,41.876543209876544,0)" xlink:href="#bf"/><use transform="matrix(0.04938271604938272,0,0,0.04938271604938272,52.592592592592595,0)" xlink:href="#by"/><use transform="matrix(0.04938271604938272,0,0,0.04938271604938272,57.53086419753087,0)" xlink:href="#bk"/><use transform="matrix(0.04938271604938272,0,0,0.04938271604938272,66.07407407407408,0)" xlink:href="#bb"/><use transform="matrix(0.04938271604938272,0,0,0.04938271604938272,75.95061728395062,0)" xlink:href="#bB"/><use transform="matrix(0.04938271604938272,0,0,0.04938271604938272,86.8641975308642,0)" xlink:href="#by"/><use transform="matrix(0.04938271604938272,0,0,0.04938271604938272,91.80246913580248,0)" xlink:href="#bC"/><use transform="matrix(0.04938271604938272,0,0,0.04938271604938272,102.17283950617285,0)" xlink:href="#bu"/></g><path fill="#333" d="M147-157h-42c-8 43-13 90-29 124h71v-124zM24-33c25-41 30-96 40-157h132v157h26V72h-43V0H46v72H2V-33h22" id="bD"/><g id="H"><use transform="matrix(0.04938271604938272,0,0,0.04938271604938272,0,0)" xlink:href="#bD"/><use transform="matrix(0.04938271604938272,0,0,0.04938271604938272,11.25925925925926,0)" xlink:href="#bg"/><use transform="matrix(0.04938271604938272,0,0,0.04938271604938272,20.888888888888893,0)" xlink:href="#bs"/><use transform="matrix(0.04938271604938272,0,0,0.04938271604938272,30.765432098765434,0)" xlink:href="#bw"/><use transform="matrix(0.04938271604938272,0,0,0.04938271604938272,41.67901234567902,0)" xlink:href="#bu"/></g><g id="I"><use transform="matrix(0.04938271604938272,0,0,0.04938271604938272,0,0)" xlink:href="#bt"/><use transform="matrix(0.04938271604938272,0,0,0.04938271604938272,10.320987654320989,0)" xlink:href="#bb"/><use transform="matrix(0.04938271604938272,0,0,0.04938271604938272,20.19753086419753,0)" xlink:href="#bs"/><use transform="matrix(0.04938271604938272,0,0,0.04938271604938272,30.074074074074076,0)" xlink:href="#bu"/></g><g id="J"><use transform="matrix(0.04938271604938272,0,0,0.04938271604938272,0,0)" xlink:href="#br"/><use transform="matrix(0.04938271604938272,0,0,0.04938271604938272,8.88888888888889,0)" xlink:href="#by"/><use transform="matrix(0.04938271604938272,0,0,0.04938271604938272,13.827160493827162,0)" xlink:href="#bv"/><use transform="matrix(0.04938271604938272,0,0,0.04938271604938272,25.08641975308642,0)" xlink:href="#bw"/><use transform="matrix(0.04938271604938272,0,0,0.04938271604938272,36,0)" xlink:href="#br"/><use transform="matrix(0.04938271604938272,0,0,0.04938271604938272,44.888888888888886,0)" xlink:href="#by"/><use transform="matrix(0.04938271604938272,0,0,0.04938271604938272,49.82716049382716,0)" xlink:href="#bs"/><use transform="matrix(0.04938271604938272,0,0,0.04938271604938272,59.703703703703695,0)" xlink:href="#bm"/><use transform="matrix(0.04938271604938272,0,0,0.04938271604938272,68.39506172839506,0)" xlink:href="#bw"/></g><path fill="#333" d="M201-194c63 0 92 36 92 99 1 63-33 99-93 99-55 0-85-33-91-85H75V0H25v-190h50v75h35c7-49 36-79 91-79zm-1 164c32 0 42-26 42-65s-9-65-40-65c-32 0-42 27-42 65 1 35 8 65 40 65" id="bE"/><path fill="#333" d="M184-268c7 76-131 80-142 15-1-5-1-10-1-15h39c1 22 10 35 32 35s31-13 32-35h40zM71-190L68-54l78-136h50V0h-45l3-136L78 0H25v-190h46" id="bF"/><g id="K"><use transform="matrix(0.04938271604938272,0,0,0.04938271604938272,0,0)" xlink:href="#bv"/><use transform="matrix(0.04938271604938272,0,0,0.04938271604938272,11.25925925925926,0)" xlink:href="#bE"/><use transform="matrix(0.04938271604938272,0,0,0.04938271604938272,26.172839506172842,0)" xlink:href="#bD"/><use transform="matrix(0.04938271604938272,0,0,0.04938271604938272,37.4320987654321,0)" xlink:href="#bg"/><use transform="matrix(0.04938271604938272,0,0,0.04938271604938272,47.308641975308646,0)" xlink:href="#bF"/></g><path fill="#3a414a" d="M121-190v23H57V0H25v-190h96" id="bG"/><path fill="#3a414a" d="M75-87c-4 1-14 3-19 3V0H24v-190h32v83c26-2 31-21 43-41l26-42h33l-61 86L159 0h-35" id="bH"/><g id="L"><use transform="matrix(0.06172839506172839,0,0,0.06172839506172839,0,0)" xlink:href="#an"/><use transform="matrix(0.06172839506172839,0,0,0.06172839506172839,15.925925925925926,0)" xlink:href="#ae"/><use transform="matrix(0.06172839506172839,0,0,0.06172839506172839,20.80246913580247,0)" xlink:href="#ap"/><use transform="matrix(0.06172839506172839,0,0,0.06172839506172839,33.76543209876543,0)" xlink:href="#bG"/><use transform="matrix(0.06172839506172839,0,0,0.06172839506172839,41.35802469135802,0)" xlink:href="#ao"/><use transform="matrix(0.06172839506172839,0,0,0.06172839506172839,53.209876543209866,0)" xlink:href="#aa"/><use transform="matrix(0.06172839506172839,0,0,0.06172839506172839,63.08641975308641,0)" xlink:href="#ao"/><use transform="matrix(0.06172839506172839,0,0,0.06172839506172839,75.43209876543209,0)" xlink:href="#al"/><use transform="matrix(0.06172839506172839,0,0,0.06172839506172839,87.22222222222221,0)" xlink:href="#bH"/><use transform="matrix(0.06172839506172839,0,0,0.06172839506172839,97.40740740740739,0)" xlink:href="#ac"/></g><path fill="#3a414a" d="M175-194c59 1 80 36 80 99 0 62-25 99-81 99-54 0-76-36-78-91H57V0H25v-190h32v80h39c4-56 30-84 79-84zm-1 174c42 1 48-34 48-75 0-42-6-75-46-75-41-1-47 34-47 75s6 74 45 75" id="bI"/><g id="M"><use transform="matrix(0.06172839506172839,0,0,0.06172839506172839,0,0)" xlink:href="#Z"/><use transform="matrix(0.06172839506172839,0,0,0.06172839506172839,11.11111111111111,0)" xlink:href="#ad"/><use transform="matrix(0.06172839506172839,0,0,0.06172839506172839,23.580246913580247,0)" xlink:href="#X"/><use transform="matrix(0.06172839506172839,0,0,0.06172839506172839,35.925925925925924,0)" xlink:href="#ak"/><use transform="matrix(0.06172839506172839,0,0,0.06172839506172839,48.148148148148145,0)" xlink:href="#ac"/><use transform="matrix(0.06172839506172839,0,0,0.06172839506172839,60.49382716049382,0)" xlink:href="#ab"/><use transform="matrix(0.06172839506172839,0,0,0.06172839506172839,72.8395061728395,0)" xlink:href="#ae"/><use transform="matrix(0.06172839506172839,0,0,0.06172839506172839,77.71604938271605,0)" xlink:href="#bI"/></g><g id="N"><use transform="matrix(0.06172839506172839,0,0,0.06172839506172839,0,0)" xlink:href="#Z"/><use transform="matrix(0.06172839506172839,0,0,0.06172839506172839,11.11111111111111,0)" xlink:href="#ad"/><use transform="matrix(0.06172839506172839,0,0,0.06172839506172839,23.580246913580247,0)" xlink:href="#X"/><use transform="matrix(0.06172839506172839,0,0,0.06172839506172839,35.925925925925924,0)" xlink:href="#ak"/><use transform="matrix(0.06172839506172839,0,0,0.06172839506172839,48.148148148148145,0)" xlink:href="#ac"/><use transform="matrix(0.06172839506172839,0,0,0.06172839506172839,60.49382716049382,0)" xlink:href="#ab"/><use transform="matrix(0.06172839506172839,0,0,0.06172839506172839,72.8395061728395,0)" xlink:href="#ae"/><use transform="matrix(0.06172839506172839,0,0,0.06172839506172839,77.71604938271605,0)" xlink:href="#au"/><use transform="matrix(0.06172839506172839,0,0,0.06172839506172839,83.88888888888889,0)" xlink:href="#al"/></g><path fill="#333" d="M67-125c0 53 21 87 73 88 37 1 54-22 65-47l45 17C233-25 199 4 140 4 58 4 20-42 15-125 8-235 124-281 211-232c18 10 29 29 36 50l-46 12c-8-25-30-41-62-41-52 0-71 34-72 86" id="bJ"/><g id="O"><use transform="matrix(0.04938271604938272,0,0,0.04938271604938272,0,0)" xlink:href="#bJ"/><use transform="matrix(0.04938271604938272,0,0,0.04938271604938272,12.790123456790125,0)" xlink:href="#bB"/><use transform="matrix(0.04938271604938272,0,0,0.04938271604938272,23.703703703703706,0)" xlink:href="#bg"/><use transform="matrix(0.04938271604938272,0,0,0.04938271604938272,33.580246913580254,0)" xlink:href="#bf"/><use transform="matrix(0.04938271604938272,0,0,0.04938271604938272,44.296296296296305,0)" xlink:href="#bb"/><use transform="matrix(0.04938271604938272,0,0,0.04938271604938272,54.17283950617284,0)" xlink:href="#bi"/><use transform="matrix(0.04938271604938272,0,0,0.04938271604938272,64.98765432098766,0)" xlink:href="#by"/><use transform="matrix(0.04938271604938272,0,0,0.04938271604938272,69.92592592592592,0)" xlink:href="#bF"/></g><path fill="#333" d="M98-112c-6 3-14 5-22 6V0H24v-248h52v106c24-6 35-30 47-49l36-57h53l-77 111L220 0h-56" id="bK"/><g id="P"><use transform="matrix(0.04938271604938272,0,0,0.04938271604938272,0,0)" xlink:href="#bK"/><use transform="matrix(0.04938271604938272,0,0,0.04938271604938272,10.814814814814815,0)" xlink:href="#bd"/><use transform="matrix(0.04938271604938272,0,0,0.04938271604938272,21.382716049382715,0)" xlink:href="#bj"/><use transform="matrix(0.04938271604938272,0,0,0.04938271604938272,34.27160493827161,0)" xlink:href="#bb"/><use transform="matrix(0.04938271604938272,0,0,0.04938271604938272,44.14814814814815,0)" xlink:href="#bf"/><use transform="matrix(0.04938271604938272,0,0,0.04938271604938272,54.8641975308642,0)" xlink:href="#bD"/><use transform="matrix(0.04938271604938272,0,0,0.04938271604938272,66.12345679012347,0)" xlink:href="#bl"/><use transform="matrix(0.04938271604938272,0,0,0.04938271604938272,77.03703703703705,0)" xlink:href="#bu"/></g><path fill="#333" d="M274 0H25v-190h46v157h56v-157h46v157h55v-157h46V0" id="bL"/><g id="Q"><use transform="matrix(0.04938271604938272,0,0,0.04938271604938272,0,0)" xlink:href="#bi"/><use transform="matrix(0.04938271604938272,0,0,0.04938271604938272,10.814814814814815,0)" xlink:href="#by"/><use transform="matrix(0.04938271604938272,0,0,0.04938271604938272,15.753086419753087,0)" xlink:href="#bL"/><use transform="matrix(0.04938271604938272,0,0,0.04938271604938272,30.567901234567906,0)" xlink:href="#bg"/><use transform="matrix(0.04938271604938272,0,0,0.04938271604938272,40.44444444444445,0)" xlink:href="#bf"/><use transform="matrix(0.04938271604938272,0,0,0.04938271604938272,51.1604938271605,0)" xlink:href="#bf"/><use transform="matrix(0.04938271604938272,0,0,0.04938271604938272,61.87654320987655,0)" xlink:href="#bC"/></g><path fill="#333" d="M186 0v-106H76V0H24v-248h52v99h110v-99h50V0h-50" id="bM"/><g id="R"><use transform="matrix(0.04938271604938272,0,0,0.04938271604938272,0,0)" xlink:href="#bM"/><use transform="matrix(0.04938271604938272,0,0,0.04938271604938272,12.790123456790125,0)" xlink:href="#bb"/><use transform="matrix(0.04938271604938272,0,0,0.04938271604938272,22.66666666666667,0)" xlink:href="#bv"/><use transform="matrix(0.04938271604938272,0,0,0.04938271604938272,33.92592592592593,0)" xlink:href="#bb"/><use transform="matrix(0.04938271604938272,0,0,0.04938271604938272,43.802469135802475,0)" xlink:href="#bL"/><use transform="matrix(0.04938271604938272,0,0,0.04938271604938272,58.61728395061729,0)" xlink:href="#bm"/><use transform="matrix(0.04938271604938272,0,0,0.04938271604938272,67.75308641975309,0)" xlink:href="#bn"/><use transform="matrix(0.04938271604938272,0,0,0.04938271604938272,77.62962962962963,0)" xlink:href="#be"/><use transform="matrix(0.04938271604938272,0,0,0.04938271604938272,88.2962962962963,0)" xlink:href="#bb"/><use transform="matrix(0.04938271604938272,0,0,0.04938271604938272,98.17283950617285,0)" xlink:href="#bf"/><use transform="matrix(0.04938271604938272,0,0,0.04938271604938272,108.8888888888889,0)" xlink:href="#bf"/><use transform="matrix(0.04938271604938272,0,0,0.04938271604938272,119.60493827160495,0)" xlink:href="#bC"/></g><g id="S"><use transform="matrix(0.04938271604938272,0,0,0.04938271604938272,0,0)" xlink:href="#bs"/><use transform="matrix(0.04938271604938272,0,0,0.04938271604938272,9.876543209876544,0)" xlink:href="#br"/><use transform="matrix(0.04938271604938272,0,0,0.04938271604938272,18.962962962962965,0)" xlink:href="#bv"/><use transform="matrix(0.04938271604938272,0,0,0.04938271604938272,30.222222222222225,0)" xlink:href="#bb"/><use transform="matrix(0.04938271604938272,0,0,0.04938271604938272,40.09876543209877,0)" xlink:href="#bD"/><use transform="matrix(0.04938271604938272,0,0,0.04938271604938272,51.35802469135803,0)" xlink:href="#bf"/><use transform="matrix(0.04938271604938272,0,0,0.04938271604938272,62.074074074074076,0)" xlink:href="#bd"/><use transform="matrix(0.04938271604938272,0,0,0.04938271604938272,72.64197530864199,0)" xlink:href="#bs"/><use transform="matrix(0.04938271604938272,0,0,0.04938271604938272,82.51851851851853,0)" xlink:href="#bm"/><use transform="matrix(0.04938271604938272,0,0,0.04938271604938272,91.20987654320989,0)" xlink:href="#by"/><use transform="matrix(0.04938271604938272,0,0,0.04938271604938272,96.14814814814815,0)" xlink:href="#bu"/></g><g id="T"><use transform="matrix(0.04938271604938272,0,0,0.04938271604938272,0,0)" xlink:href="#bt"/><use transform="matrix(0.04938271604938272,0,0,0.04938271604938272,10.320987654320989,0)" xlink:href="#bb"/><use transform="matrix(0.04938271604938272,0,0,0.04938271604938272,20.19753086419753,0)" xlink:href="#bs"/><use transform="matrix(0.04938271604938272,0,0,0.04938271604938272,30.074074074074076,0)" xlink:href="#bn"/><use transform="matrix(0.04938271604938272,0,0,0.04938271604938272,38.61728395061729,0)" xlink:href="#bu"/></g><path fill="#333" d="M111-30c34 0 45-22 45-58s-9-59-42-59c-34 0-45 23-45 59 0 35 10 58 42 58zm-65-95c11-34 33-56 77-56 59 0 85 31 85 92 1 63-35 89-97 93C-12 13-8-201 74-238c33-15 81-20 124-26v41c-70 13-161 1-152 98" id="bN"/><g id="U"><use transform="matrix(0.04938271604938272,0,0,0.04938271604938272,0,0)" xlink:href="#bd"/><use transform="matrix(0.04938271604938272,0,0,0.04938271604938272,10.567901234567902,0)" xlink:href="#bs"/><use transform="matrix(0.04938271604938272,0,0,0.04938271604938272,20.444444444444446,0)" xlink:href="#bd"/><use transform="matrix(0.04938271604938272,0,0,0.04938271604938272,31.259259259259263,0)" xlink:href="#bN"/><use transform="matrix(0.04938271604938272,0,0,0.04938271604938272,41.77777777777778,0)" xlink:href="#bv"/><use transform="matrix(0.04938271604938272,0,0,0.04938271604938272,53.03703703703704,0)" xlink:href="#bl"/><use transform="matrix(0.04938271604938272,0,0,0.04938271604938272,63.95061728395062,0)" xlink:href="#be"/><use transform="matrix(0.04938271604938272,0,0,0.04938271604938272,74.61728395061729,0)" xlink:href="#bd"/><use transform="matrix(0.04938271604938272,0,0,0.04938271604938272,85.18518518518519,0)" xlink:href="#bs"/><use transform="matrix(0.04938271604938272,0,0,0.04938271604938272,95.06172839506173,0)" xlink:href="#bm"/><use transform="matrix(0.04938271604938272,0,0,0.04938271604938272,103.75308641975309,0)" xlink:href="#bg"/><use transform="matrix(0.04938271604938272,0,0,0.04938271604938272,113.62962962962963,0)" xlink:href="#bF"/><use transform="matrix(0.04938271604938272,0,0,0.04938271604938272,124.54320987654322,0)" xlink:href="#bu"/></g><g id="V"><use transform="matrix(0.04938271604938272,0,0,0.04938271604938272,0,0)" xlink:href="#bc"/><use transform="matrix(0.04938271604938272,0,0,0.04938271604938272,10.71604938271605,0)" xlink:href="#bd"/><use transform="matrix(0.04938271604938272,0,0,0.04938271604938272,21.283950617283953,0)" xlink:href="#bs"/><use transform="matrix(0.04938271604938272,0,0,0.04938271604938272,31.35802469135803,0)" xlink:href="#bb"/><use transform="matrix(0.04938271604938272,0,0,0.04938271604938272,41.23456790123457,0)" xlink:href="#bD"/><use transform="matrix(0.04938271604938272,0,0,0.04938271604938272,52.49382716049383,0)" xlink:href="#bl"/></g></defs></g></svg>